<svg xmlns="http://www.w3.org/2000/svg" xmlns:xlink="http://www.w3.org/1999/xlink" width="248.757" height="47.383" viewBox="0 0 248.757 47.383">
  <defs>
    <clipPath id="clip-path">
      <path id="Контур_4214" data-name="Контур 4214" d="M-583.09-423.9h3.781v1.673l-1.156-.15v5.927l-.809,1.163-.711.408v-7.349h-1.1Zm3.879,0h1.6l.565,2.283.515-2.283h1.6l-1.448,5v.249h.734v.367l-.241-.022-1.691,1.145-.188.005,0-.735h-.875v-.76h.877l0-.505Zm4.665,0h2.284c.65,0,.876.7,1.007,1.063a3.746,3.746,0,0,1,.146,1.043,3.366,3.366,0,0,1-.146,1.042,2.025,2.025,0,0,1-.517.886,1.265,1.265,0,0,1-.809.354c-.049,0-.541.055-.639.055v-1.626l.295,0a.347.347,0,0,0,.246-.178,1.078,1.078,0,0,0,.1-.432.873.873,0,0,0-.1-.355.612.612,0,0,0-.442-.177c-.08,0-.1.016-.1.078v4.555l-1.326-.373V-423.9Zm5.034,0h1.718l1.154,5,.285,1.017a8.2,8.2,0,0,1-1.335.484l-.35-1.5h-1.35l-.262,1.192a8.933,8.933,0,0,0-1.329-.537l1.075-4.079Zm.466,3.424h.761l-.418-1.673Zm3.266-3.424h1.4v2.283h1.179V-423.9h1.449v9.966l-1.449-1.228v-4.7h-1.179v3.58l-1.4-1.078V-423.9Z" transform="translate(583.09 423.9)" clip-rule="evenodd"/>
    </clipPath>
  </defs>
  <g id="Слой_x0020_1" transform="translate(700.13 493.32)">
    <path id="Контур_4211" data-name="Контур 4211" d="M-700.13-493.32h47.383v47.383H-700.13Z" transform="translate(0 0)" fill="#3885c4" fill-rule="evenodd"/>
    <path id="Контур_4212" data-name="Контур 4212" d="M-583.09-423.9h3.781v1.673l-1.156-.15v5.927l-.809,1.163-.711.408v-7.349h-1.1Zm3.879,0h1.6l.565,2.283.515-2.283h1.6l-1.448,5v.249h.734v.367l-.241-.022-1.691,1.145-.188.005,0-.735h-.875v-.76h.877l0-.505Zm4.665,0h2.284c.65,0,.876.7,1.007,1.063a3.746,3.746,0,0,1,.146,1.043,3.366,3.366,0,0,1-.146,1.042,2.025,2.025,0,0,1-.517.886,1.265,1.265,0,0,1-.809.354c-.049,0-.541.055-.639.055v-1.626l.295,0a.347.347,0,0,0,.246-.178,1.078,1.078,0,0,0,.1-.432.873.873,0,0,0-.1-.355.612.612,0,0,0-.442-.177c-.08,0-.1.016-.1.078v4.555l-1.326-.373V-423.9Zm5.034,0h1.718l1.154,5,.285,1.017a8.2,8.2,0,0,1-1.335.484l-.35-1.5h-1.35l-.262,1.192a8.933,8.933,0,0,0-1.329-.537l1.075-4.079Zm.466,3.424h.761l-.418-1.673Zm3.266-3.424h1.4v2.283h1.179V-423.9h1.449v9.966l-1.449-1.228v-4.7h-1.179v3.58l-1.4-1.078V-423.9Z" transform="translate(-105.301 -62.457)" fill="#fefefe" fill-rule="evenodd"/>
    <g id="Сгруппировать_3311" data-name="Сгруппировать 3311" transform="translate(-688.391 -486.358)" clip-path="url(#clip-path)">
      <g id="_1982487141888" transform="translate(0.11 8.506)">
        <path id="_1" d="M-581.99-335.431h21.5l-2.808-1.689-1.8-1.407-.975.563a15.1,15.1,0,0,0-2.419-.687l-1.756-.438-1.638,1.063-2.966-1-1.833,1.313h-2.3l-1.443,1.469Z" transform="translate(581.99 339.09)" fill="#0094d6" fill-rule="evenodd"/>
        <path id="Контур_4213" data-name="Контур 4213" d="M-581.99-298.781h21.5l-2.808-1.689-1.8-1.407-.975.563a15.1,15.1,0,0,0-2.419-.687l-1.756-.438-1.638,1.063-2.966-1-1.833,1.314h-2.3l-1.443,1.469-1.561.813Z" transform="translate(581.99 306.116)" fill="#fefefe" fill-rule="evenodd"/>
      </g>
    </g>
    <path id="Контур_4215" data-name="Контур 4215" d="M-583.09-423.9h3.781v1.673l-1.156-.15v5.927l-.809,1.163-.711.408v-7.349h-1.1Zm3.879,0h1.6l.565,2.283.515-2.283h1.6l-1.448,5v.249h.734v.367l-.241-.022-1.691,1.145-.188.005,0-.735h-.875v-.76h.877l0-.505Zm4.665,0h2.284c.65,0,.876.7,1.007,1.063a3.746,3.746,0,0,1,.146,1.043,3.366,3.366,0,0,1-.146,1.042,2.025,2.025,0,0,1-.517.886,1.265,1.265,0,0,1-.809.354c-.049,0-.541.055-.639.055v-1.626l.295,0a.347.347,0,0,0,.246-.178,1.078,1.078,0,0,0,.1-.432.873.873,0,0,0-.1-.355.612.612,0,0,0-.442-.177c-.08,0-.1.016-.1.078v4.555l-1.326-.373V-423.9Zm5.034,0h1.718l1.154,5,.285,1.017a8.2,8.2,0,0,1-1.335.484l-.35-1.5h-1.35l-.262,1.192a8.933,8.933,0,0,0-1.329-.537l1.075-4.079Zm.466,3.424h.761l-.418-1.673Zm3.266-3.424h1.4v2.283h1.179V-423.9h1.449v9.966l-1.449-1.228v-4.7h-1.179v3.58l-1.4-1.078V-423.9Z" transform="translate(-105.301 -62.457)" fill="none" fill-rule="evenodd"/>
    <path id="Контур_4216" data-name="Контур 4216" d="M-583.09-321.67h21.337v18.775c0,3.052-3.137,3.151-3.641,3.151h-14.017c-.543,0-3.679.164-3.679-3.151Zm7.054,5.524v10.4h7.251v-10.4h6.443v-4.936H-582.5v4.936Z" transform="translate(-105.301 -154.434)" fill="#fefefe" fill-rule="evenodd"/>
    <path id="Контур_4217" data-name="Контур 4217" d="M-581.5-367.41l1.456-1.849h2.27l1.833-1.194,2.9.776,1.679-.933c.44.168,2.895,1.329,3.161,1.4l1.842-.8,1.886,1.535,2.722,2.489H-583.09l.912-.838Zm16.826-.817-.008-.006-1.709-1.362-1.75.736-.033-.009c-.3-.078-2.86-1.309-3.12-1.385l-1.695.946-2.888-.772-1.773,1.141h-2.237l-1.393,1.768-.722.47,2.5-1.129,1.419.752,1.759-1.86,2.212,1.688.811-1.05,1.158.478c.084,0,.672.393.672.3l.706-1.309,3.272,1.321,1.123-.82.63.813,1.137-.018Z" transform="translate(-105.301 -110.403)" fill="#fefefe" fill-rule="evenodd"/>
    <path id="Контур_4218" data-name="Контур 4218" d="M-106.051-305.022h2.56v-9.272h3.539v-2.36h-9.638v2.36h3.539Zm13.909.183c3.123,0,5.1-1.728,5.1-5.25v-6.564H-89.6v6.664c0,1.844-.947,2.791-2.508,2.791s-2.509-.98-2.509-2.874v-6.58h-2.559v6.648C-97.176-306.585-95.266-304.84-92.142-304.84Zm8.707-.183h2.559v-3.722H-78.9l2.525,3.722h2.991l-2.841-4.154a3.612,3.612,0,0,0,2.492-3.606,3.673,3.673,0,0,0-1-2.692,4.634,4.634,0,0,0-3.389-1.18h-5.318v11.632ZM-80.876-311v-3.34h2.542c1.247,0,2.011.566,2.011,1.662,0,1.014-.715,1.678-1.961,1.678Zm9.455,5.983h2.609l1.064-2.609h4.918l1.063,2.609h2.675l-4.985-11.714h-2.359Zm4.586-4.869,1.546-3.771,1.546,3.771Zm10.535,4.869h2.525v-7.395l5.634,7.395h2.176v-11.632H-48.49v7.162l-5.451-7.162H-56.3Zm27.949.183c3.123,0,5.1-1.728,5.1-5.25v-6.564h-2.559v6.664c0,1.844-.948,2.791-2.509,2.791s-2.509-.98-2.509-2.874v-6.58h-2.559v6.648c0,3.422,1.911,5.167,5.035,5.167Zm8.707-.183h2.525v-7.395l5.634,7.395h2.176v-11.632h-2.525v7.162l-5.45-7.162h-2.36Zm14.241,0h2.559v-11.632H-5.4Zm10.169.083h2.26l4.7-11.715H8.97l-3.041,8.192-3.041-8.192H.063Zm9.754-.083h8.857V-307.3H17.062v-2.442h5.483v-2.277H17.062v-2.36h6.231v-2.277H14.519Zm12.131,0h2.559v-3.722h1.978l2.525,3.722H36.7l-2.841-4.154a3.612,3.612,0,0,0,2.492-3.606,3.677,3.677,0,0,0-1-2.692,4.635,4.635,0,0,0-3.39-1.18H26.65v11.632ZM29.208-311v-3.34h2.542c1.246,0,2.011.566,2.011,1.662,0,1.014-.715,1.678-1.961,1.678ZM43.8-304.856c2.509,0,4.271-1.3,4.271-3.607,0-2.06-1.329-2.908-3.689-3.522-2.011-.516-2.509-.764-2.509-1.529,0-.6.516-1.047,1.5-1.047a5.461,5.461,0,0,1,3.024,1.146l1.329-1.928a6.732,6.732,0,0,0-4.32-1.478c-2.376,0-4.071,1.4-4.071,3.506,0,2.343,1.511,2.991,3.854,3.589,1.945.5,2.343.831,2.343,1.479,0,.714-.631,1.129-1.678,1.129a5.335,5.335,0,0,1-3.473-1.412l-1.511,1.811A7.4,7.4,0,0,0,43.8-304.856Zm7.61-.167h2.56v-11.632h-2.56Zm9.173,0h2.559v-9.272h3.539v-2.36H57.041v2.36h3.539v9.272Zm12.329,0h2.559v-4.637l4.47-7H77.031l-2.825,4.67-2.775-4.67H68.44l4.47,7.046v4.586Z" transform="translate(-531.312 -158.798)" fill="#3885c4"/>
  </g>
</svg>
